<?xml version="1.0" encoding="utf-8"?>
<!-- Generator: Adobe Illustrator 26.2.1, SVG Export Plug-In . SVG Version: 6.00 Build 0)  -->
<svg version="1.1" id="Layer_1" xmlns="http://www.w3.org/2000/svg" xmlns:xlink="http://www.w3.org/1999/xlink" x="0px" y="0px"
	 viewBox="0 0 498.07 570.46" style="enable-background:new 0 0 498.07 570.46;" xml:space="preserve">
<style type="text/css">
	.st0{fill:#057DA5;}
	.st1{fill:#FFFFFF;}
</style>
<g>
	<g>
		<path class="st0" d="M308.56,259.42c10.61-6.78,18.33-16.65,21.29-23.1c0,0-30.22,0.81-39.76,7.12
			c-9.6,6.31-12.29,12.36-12.63,16.99C277.13,265.06,297.95,266.14,308.56,259.42z"/>
		<path class="st0" d="M314.74,284.74c6.25,0.34,21.69-1.88,26.79-4.3c4.57-2.15,21.83-10.54,25.72-14.3c0,0-23.24-4.5-39.69-2.89
			c-16.39,1.61-24.71,7.19-23.91,12.56C304.53,281.18,308.49,284.4,314.74,284.74z"/>
		<path class="st0" d="M289.22,171.85c-6.45,14.1-3.83,24.18-1.61,26.12c2.28,1.95,14.57-1.95,21.56-14.3
			c6.98-12.42,11.42-27.87,11.42-27.87S295.93,157.34,289.22,171.85z"/>
		<path class="st0" d="M371.95,225.71c-14.04,1.41-32.1,9.27-30.62,14.71c1.54,5.44,19.41,11.08,29.41,9.47
			c10.07-1.61,32.03-11.42,35.19-14.77C406,235.18,385.99,224.3,371.95,225.71z"/>
		<path class="st0" d="M342.61,317.17c16.18,8.13,31.9,7.59,31.9,7.59c-1.81-6.58-9-18.13-15.04-23.03
			c-8.13-6.58-20.48-10.07-25.85-8.53c-5.37,1.54-6.04,2.89-7.19,6.18C325.28,302.67,326.42,309.05,342.61,317.17z"/>
		<path class="st0" d="M212.39,285.28c0-3.89-2.55-6.72-10.74-9.8c-8.13-3.09-25.12-6.18-43.38,3.09
			c-18.27,9.27-25.12,29.82-25.12,29.82s15.65-3.36,27.74-5.37c12.09-1.95,28.07-3.09,38.48-5.37
			C209.84,295.42,212.39,289.17,212.39,285.28z"/>
		<path class="st0" d="M303.72,222.15c-0.34,1.41-1.14,3.96,4.37,8.19c5.1,3.9,10.07,0.2,19-5.37
			c11.08-6.92,15.11-15.11,15.11-15.11c-10.61-1.95-20.42-0.13-26.86,2.55C308.83,215.1,304.8,217.85,303.72,222.15z"/>
		<path class="st0" d="M394.72,328.46c12.83,3.49,36.13-2.35,36.13-2.35c-6.51-7.72-15.51-13.5-29.62-17.59
			c-13.23-3.83-25.85-3.09-27.2,1.14S381.89,324.96,394.72,328.46z"/>
		<path class="st0" d="M415.67,153.72c18.94-8.06,26.26-19.61,29.62-20.28c0,0-21.89-5.84-39.35,0.6
			c-17.53,6.51-26.26,19.27-26.26,19.27S396.67,161.91,415.67,153.72z"/>
		<path class="st0" d="M432.19,165.74c-13.36,6.11-25.79,17.86-24.78,21.42c0.94,3.56,19.41,6.72,31.36,1.88
			c11.89-4.84,28.21-17.19,33.51-25.59C472.28,163.46,445.56,159.7,432.19,165.74z"/>
		<path class="st0" d="M433.47,204.02c-19.14,1.81-35.93,13.1-37.2,14.71c-1.21,1.61,13.1,8.39,30.76,7.32
			c17.66-1.14,37.61-8.66,43.85-14.71C470.87,211.34,452.61,202.2,433.47,204.02z"/>
		<path class="st0" d="M406.47,251.5c-7.45,0.27-12.42,1.48-15.11,5.37c-0.87,1.28-2.62,3.49,1.21,9.8
			c3.56,5.78,9.87,4.03,20.68,1.81c13.5-2.69,20.55-9.4,20.55-9.4C424.13,253.18,413.79,251.29,406.47,251.5z"/>
		<path class="st0" d="M459.19,288.36c7.72-7.79,7.25-15.65,7.25-15.65s-17.86,1.61-27.74,6.58c-9.94,4.97-19.14,17.66-19.14,17.66
			s8.13,2.08,17.8,0.47C446.97,295.82,454.62,292.93,459.19,288.36z"/>
		<path class="st0" d="M351.34,131.29c11.42-12.02,13.23-34.45,13.23-38.41c0,0-22.23,20.28-27.4,25.59
			c-5.1,5.31-16.05,19.34-8.46,22.7C336.36,144.52,345.09,137.87,351.34,131.29z"/>
		<path class="st0" d="M410.43,102.95c-11.55,5.57-21.62,17.19-22.56,22.56c-0.87,5.31,25.45-1.54,35.66-5.17
			c10.21-3.69,29.48-16.45,33.17-23.77C456.7,96.57,427.02,95.02,410.43,102.95z"/>
		<path class="st0" d="M360.34,285.07c-0.87,1.75-2.69,4.84,3.63,11.82c5.84,6.45,13.7,3.02,27.4-1.75
			c17.06-5.91,24.91-15.51,24.91-15.51c-13.9-5.44-27.8-5.78-37.27-4.1C369.33,277.28,363.09,279.77,360.34,285.07z"/>
		<path class="st0" d="M13.14,204.62c6.65,5.1,21.83,7.32,23.71,2.89c1.88-4.5,3.89-3.56-2.42-16.05
			c-6.31-12.49-34.25-22.03-34.25-22.03C-1.3,184.54,6.49,199.52,13.14,204.62z"/>
		<path class="st0" d="M43.9,178.77c2.62,7.32,1.88,30.69,4.43,39.29c2.62,8.66,5.57,17.59,16.32,13.43s8.86-14.71,1.88-26.86
			C59.41,192.47,43.9,178.77,43.9,178.77z"/>
		<path class="st0" d="M328.77,202.61c0,0,18.27-10.01,22.9-23.1c4.63-13.1,4.23-34.92,4.23-34.92
			c-9.07,0.47-24.11,16.79-27.74,26.26C322.66,185.55,328.77,202.61,328.77,202.61z"/>
		<path class="st0" d="M129.12,279.5c-4.37-4.84-25.92-3.83-41.1,3.09C72.84,289.51,66.8,307.1,66.8,307.1s15.58-2.75,31.56-4.5
			c15.98-1.75,17.19-3.09,23.17-4.84C127.51,296.02,133.55,284.27,129.12,279.5z"/>
		<path class="st0" d="M27.25,123.83c2.62,5.78,1.07,4.77,3.69,14.71c2.55,9.87,1.07,18.2,7.79,26.79
			c5.98,7.72,12.96,12.16,21.83,7.39c8.86-4.84,7.79-15.65,1.14-26.53C55.05,135.32,27.25,123.83,27.25,123.83z"/>
		<path class="st0" d="M216.42,183.27c10.01-1.34,11.55-10.27,8.86-19.88c-2.69-9.6-18.87-42.44-18.87-42.44s-11.55,23.24-9.2,42.44
			C199.5,182.6,206.42,184.61,216.42,183.27z"/>
		<path class="st0" d="M243.02,211c7.86,1.95,14.98-7.25,18.6-12.22c5.37-7.25,20.21-44.73,21.29-46.07
			c0.07,0-30.76,13.5-39.22,26.06C233.75,193.41,235.16,209.05,243.02,211z"/>
		<path class="st0" d="M30.87,246.33c14.64,7.79,17.93,5.57,21.56-1.01c3.63-6.51-2.01-16.59-15.18-19.68
			c-13.23-3.09-35.59-5.17-35.59-5.17C8.85,225.64,14.42,237.73,30.87,246.33z"/>
		<path class="st0" d="M250.2,259.02c6.04,0.2,19.68-11.62,27.27-21.49c7.66-9.87,19.81-26.93,24.31-32.17
			c0,0-33.44,5.24-47.55,15.65c-12.22,9.13-14.1,14.57-15.24,22.7C237.84,251.83,244.16,258.82,250.2,259.02z"/>
		<path class="st0" d="M222.26,223.56c0,0,10.74,4.1,14.24-1.14c3.49-5.24-3.69-14.17-3.69-14.17s-4.3-4.97-9.6-7.52
			c-5.31-2.55-14.51-10.21-17.39-11.08c0,0-2.48,10.68,2.48,21.22C213.27,221.41,222.26,223.56,222.26,223.56z"/>
		<path class="st0" d="M84.46,272.65c6.72-1.81,11.55-5.91,9.94-15.58c-1.61-9.67-21.96-7.92-38.01-1.34
			c-15.98,6.58-21.96,23.1-21.96,23.1s14.71-0.94,25.52-2.28C70.76,275.14,77.61,274.33,84.46,272.65z"/>
		<path class="st0" d="M319.84,38.01c0,0-14.71,4.03-18.8,20.55c-2.62,10.54-2.42,22.3-1.28,24.51c1.07,2.22,12.09-7.66,12.09-7.66
			s5.91-6.45,9.27-11.95C325.89,55.6,323.8,40.16,319.84,38.01z"/>
		<path class="st0" d="M103.53,117.72c3.89,4.37,9.87,13.77,19.47,6.51c8.39-6.31,4.03-12.76-4.63-20.55
			c-8.73-7.86-28.07-14.57-28.07-14.57S99.71,113.43,103.53,117.72z"/>
		<path class="st0" d="M138.79,265.93c3.56-5.24,0-8.33-12.42-14.51c-12.36-6.18-31.16-7.92-31.16-7.92
			c2.01,4.16,6.85,16.52,15.65,20.68S135.16,271.11,138.79,265.93z"/>
		<path class="st0" d="M78.35,196.56c0.07,6.92,3.69,25.05,10.34,30.49c6.65,5.44,17.8,10.54,25.59,4.16
			c7.79-6.38-1.14-19.48-11.15-27.47c-10.01-7.99-23.71-24.91-23.71-24.91C77.95,181.72,78.35,189.51,78.35,196.56z"/>
		<path class="st0" d="M80.5,157.14c3.29,12.09,8.86,18.53,19.61,16.12c10.74-2.42,11.21-10.61,6.98-22.97
			c-3.56-10.54-24.71-35.39-24.71-35.39C77.68,128.2,77.21,145.06,80.5,157.14z"/>
		<path class="st0" d="M152.89,69.64c-4.1,7.72-3.49,16.12,1.07,17.19c4.5,1.14,6.65-0.6,9.6-2.95
			c12.42-9.54,12.69-29.75,13.3-30.56C176.87,53.32,159.07,58.16,152.89,69.64z"/>
		<path class="st0" d="M126.3,57.75c0,0-11.75,13.03-9.54,25.32c2.15,12.29,6.11,16.52,12.02,16.25c5.84-0.27,9.94-0.27,9.87-9.74
			c0-6.92-1.81-13.5-4.03-17.19C132.48,68.7,126.3,57.75,126.3,57.75z"/>
		<path class="st0" d="M142.62,151.1c21.29-20.95,4.63-40.16,4.63-40.16C118.24,146,142.62,151.1,142.62,151.1z"/>
		<path class="st0" d="M454.02,232.69c-15.51,0.13-26.53,4.03-27,9.8c-0.4,5.71,13.1,13.77,26.39,13.63
			c13.3-0.2,39.22-8.39,44.66-13.23C498.07,242.9,469.6,232.49,454.02,232.69z"/>
		<path class="st0" d="M372.36,112.42c4.63,4.37,26.46-9.6,34.05-18.74c7.59-9.13,16.05-24.65,16.25-32.91
			c0,0-26.19,13.5-35.66,22.23C376.79,92.41,370.41,110.6,372.36,112.42z"/>
		<path class="st0" d="M225.96,271.44c9.74-3.63,5.84-19.54-3.36-33.17c-9.13-13.63-32.1-26.66-32.1-26.66
			c-0.4,7.79,7.12,33.64,9.87,40.63C203.19,259.22,216.29,275,225.96,271.44z"/>
		<path class="st0" d="M284.92,308.38c10.07,2.89,35.46,0.54,35.46,0.54s-10.14-11.82-23.37-19.34c-13.23-7.52-27.87-4.1-30.76,3.49
			C263.36,300.59,274.78,305.49,284.92,308.38z"/>
		<path class="st0" d="M245.5,290.18c0,0,7.32-2.08,12.36-6.04c5.1-3.96,17.53-9.67,19.68-11.95c0.07-0.07-10.34-6.38-23.97-5.71
			c-13.63,0.6-19.95,8.19-19.95,8.19s-9.27,8.39-5.1,13.63C232.67,293.54,245.5,290.18,245.5,290.18z"/>
		<path class="st0" d="M156.05,96.03c0,0,4.63,27.94,8.46,35.86c3.83,7.99,10.74,13.3,18.06,8.93c7.32-4.3,5.37-13.57-2.28-23.91
			C172.57,106.64,156.05,96.03,156.05,96.03z"/>
		<path class="st0" d="M236.17,129.21c-7.39,12.22-5.84,24.51-4.63,28.74c1.21,4.3,20.89-6.92,27.8-15.18
			c9.8-11.75,8.66-23.97,14.84-36.2C274.18,106.51,243.62,116.92,236.17,129.21z"/>
		<path class="st0" d="M226.56,6.92c0,0-3.09,3.69-1.88,17.86c1.34,14.1,1.34,13.03,5.31,20.75c4.03,7.72,14.24,13.57,18.8,15.45
			c4.63,1.88,5.57-13.9,2.82-22.97C248.86,28.94,232.14,11.42,226.56,6.92z"/>
		<path class="st0" d="M251.61,106.84c19.48-17.8,4.43-34.38,4.43-34.38C229.52,102.28,251.61,106.84,251.61,106.84z"/>
		<path class="st0" d="M266.99,20.48c0,0-5.24,24.78-4.3,39.15c1.01,14.37,8.39,28.27,12.69,29.82c4.3,1.61,14.51-7.99,14.17-24.51
			C289.22,48.42,270.42,22.3,266.99,20.48z"/>
		<path class="st0" d="M181.23,168.22c-8.26-8.46-24.78-17.8-24.78-17.8c-0.81,4.23,5.91,24.24,10.61,28.94
			c4.63,4.63,16.25,12.22,21.89,6.25C194.66,179.57,189.49,176.69,181.23,168.22z"/>
		<path class="st0" d="M356.98,194.08c-5.17,10.48-5.51,23.24-5.51,23.24c12.89-0.34,20.42-6.92,28.61-16.45
			c11.42-13.1,7.86-33.71,7.86-33.71C366.78,173.26,362.01,183.94,356.98,194.08z"/>
		<path class="st0" d="M318.3,105.37c7.59,6.98,22.83-4.43,29.15-10.14c6.25-5.64,17.66-20.55,18.27-23.5c0,0-14.1,0-29.68,8.26
			C325.15,85.69,310.71,98.32,318.3,105.37z"/>
		<path class="st0" d="M291.57,102.75c-3.22,8.19-5.37,19.61-6.92,29.21c-1.48,9.6,1.01,15.45,14.24,15.45
			c13.3,0,15.71-13.03,14.17-27.47c-1.54-14.37-16.99-30.35-16.99-30.35S294.59,95.09,291.57,102.75z"/>
		<path class="st0" d="M156.25,259.69c8.19,3.36,37.54,12.56,36.53,4.5c-1.14-9.27-4.97-15.65-9.4-19.81
			c-4.9-4.63-19.95-11.35-30.69-14.24c-15.04-4.03-27.4-5.04-27.4-5.04C125.29,241.09,148.13,256.33,156.25,259.69z"/>
		<path class="st0" d="M126.3,145.86c0,0-14.98,20.95-14.98,37.07s2.82,22.97,8.86,24.18s10.74-13.9,11.68-27
			C133.15,162.11,126.3,145.86,126.3,145.86z"/>
		<path class="st0" d="M178.75,227.05c4.9-1.68,6.11-5.84,4.23-12.09c-2.15-7.25-9.6-15.71-14.84-19.95
			c-5.24-4.23-22.36-19.21-22.36-19.21c-6.78,7.25,1.34,35.19,8.86,42.51C162.16,225.64,173.91,228.73,178.75,227.05z"/>
		<path class="st0" d="M206.01,111.34c9.27,5.04,20.08,8.53,26.26,0c6.18-8.53-3.09-13.83-15.71-21.83
			c-12.69-7.99-38.28-10.68-38.28-10.68C181.97,90.79,196.75,106.24,206.01,111.34z"/>
		<path class="st0" d="M210.92,19.21C200.71,10.14,187.48,1.88,180.63,0v2.01c0,0,2.48,17.46,12.02,28.61
			c9.6,11.15,25.05,11.48,25.65,11.48C218.91,42.11,221.06,28.27,210.92,19.21z"/>
		<path class="st0" d="M182.98,42.71c1.21,9.6,13.57,25.59,24.38,31.16c10.81,5.57,31.16,10.68,33.98,7.45
			c2.75-3.22-4.03-11.21-18.53-22.36C208.3,47.75,182.98,42.71,182.98,42.71z"/>
	</g>
	<g>
		<path class="st1" d="M429.26,376.62c-0.06-6.97-2.92-9.8-9.9-9.83c-7.17-0.03-14.33-0.1-21.5,0.04c-2.22,0.04-3.33-0.72-4.39-2.66
			c-14.69-26.7-37.46-39.88-67.79-39.92c-57.65-0.08-115.3-0.04-172.94,0c-6.53,0-13.05,0.37-19.42,1.95
			c-21.41,5.3-37.49,17.63-47.96,37.02c-1.56,2.89-3.17,3.73-6.23,3.64c-7-0.21-14.01-0.12-21.02-0.05
			c-5.89,0.06-9.13,3.22-9.24,9.17c-0.12,7.01-0.12,14.02,0.01,21.02c0.11,6.03,3.2,9.05,9.19,9.17c4.14,0.08,8.28-0.02,12.42,0.03
			c6.9,0.08,6.18-0.99,6.2,5.97c0.03,11.31-0.04,22.62,0.02,33.92c0.05,8.45,0.8,16.83,2.41,25.15
			c10.81,55.82,60.44,98.48,118.41,99.16c13.85,0.16,27.71,0.02,41.56,0.02c0,0.02,0,0.03,0,0.05c12.58,0,25.16-0.02,37.74,0.01
			c7.65,0.02,15.25-0.42,22.79-1.86c38.85-7.4,67.81-28.6,87.07-62.92c9.99-17.81,14.71-37.18,14.72-57.64
			c0.01-12.58-0.01-25.16,0.01-37.74c0.01-4.08,0.04-4.1,4.23-4.12c4.46-0.02,8.92,0.02,13.38-0.01c7.43-0.05,10.15-2.68,10.21-9.96
			C429.31,389.67,429.31,383.14,429.26,376.62z M362.01,449c-0.9,40.48-30.37,74.26-70.41,81c-4.22,0.71-8.51,1.15-12.83,1.14
			c-26.43-0.03-52.88,0.51-79.29-0.15c-32.92-0.82-57.58-16.17-73.6-44.97c-6.62-11.9-9.59-24.85-9.56-38.48
			c0.03-16.56,0.21-33.13-0.05-49.68c-0.29-18.78,15.45-34.28,34.28-34.12c29.61,0.26,59.23,0.07,88.85,0.07
			c29.46,0,58.91,0,88.37,0c11.82,0,21.23,4.81,28.15,14.35c4.04,5.57,6.08,11.92,6.13,18.76
			C362.14,414.29,362.39,431.65,362.01,449z"/>
		<path class="st1" d="M308.35,416.34c-5.88,0.28-11.78,0.06-17.68,0.06c-5.89,0-11.79-0.08-17.68,0.02
			c-7.69,0.12-13.05,5.1-13.19,12.76c-0.23,12.1-0.22,24.21-0.02,36.31c0.13,7.67,5.43,12.92,13.01,13.03
			c11.94,0.17,23.89,0.16,35.83,0.01c7.77-0.1,13.22-5.59,13.29-13.32c0.12-11.78-0.06-23.57,0.06-35.36
			C322.07,422.33,315.66,415.99,308.35,416.34z"/>
		<path class="st1" d="M218.68,430.31c-0.25-8.74-5.52-13.83-14.19-13.9c-5.57-0.05-11.15-0.01-16.72-0.01
			c-5.73,0-11.49,0.32-17.19-0.08c-7.27-0.52-14.52,5.28-14.25,14.33c0.33,11.14,0.04,22.29,0.09,33.44
			c0.05,9.34,5.15,14.44,14.48,14.48c10.99,0.05,21.98,0.05,32.96,0c9.48-0.04,14.69-5.25,14.84-14.81
			c0.08-5.25,0.02-10.51,0.01-15.77C218.71,442.09,218.85,436.2,218.68,430.31z"/>
	</g>
</g>
</svg>
